{"title":"Sleeping.With.Other.People.2015.WEBRip.480p.x264.AAC-VYTO [P2PDL","uid":12950703,"size":374585294,"categoryP":"video","categoryS":"movies","magnet":"?xt=urn:btih:d020fe59ee1f3d19c477ccbdbefd213cf1c89e64&amp;dn=Sleeping.With.Other.People.2015.WEBRip.480p.x264.AAC-VYTO+%5BP2PDL&amp;tr=udp%3A%2F%2Ftracker.leechers-paradise.org%3A6969&amp;tr=udp%3A%2F%2Fzer0day.ch%3A1337&amp;tr=udp%3A%2F%2Fopen.demonii.com%3A1337&amp;tr=udp%3A%2F%2Ftracker.coppersurfer.tk%3A6969&amp;tr=udp%3A%2F%2Fexodus.desync.com%3A6969","seeders":0,"leechers":2,"uploader":"VYTOP2PDL","files":6,"time":1449722628,"description":"Sleeping.With.Other.People.2015.WEBRip.480p.x264.AAC-VYTO\r\n\r\n\r\nGenre: Comedy     \nhttp://www.imdb.com/title/tt3165612/\r\n\r\n\r\nGeneral\r\nFormat                         : MPEG-4\r\nFile size                      : 351 MiB\r\nDuration                       : 1h 36mn\r\nOverall bit rate               : 506 Kbps\r\n\r\nVideo\r\nFormat                         : AVC\r\nBit rate                       : 471 Kbps\r\nWidth                          : 720 pixels\r\nHeight                         : 304 pixels\r\nDisplay aspect ratio           : 2.35:1\r\nFrame rate mode                : Constant\r\nFrame rate                     : 25.000 fps\r\nBit depth                      : 8 bits\r\nStream size                    : 326 MiB (93%)\r\nWriting library                : x264\r\n\r\nAudio\r\nFormat                         : AAC\r\nBit rate mode                  : Variable\r\nBit rate                       : 32.0 Kbps\r\nChannel(s)                     : 2 channels\r\nChannel positions              : Front: L R\r\nSampling rate                  : 48.0 KHz\r\nStream size                    : 22.2 MiB (6%)\r\n\r\nSubtitle                       : N/a\r\n\r\nScreen shots: (Click to view)\r\n \nhttp://ititli.com/Jv \nhttp://ititli.com/JR \nhttp://ititli.com/Jy \nhttp://ititli.com/J3 \nhttp://ititli.com/JE \nhttp://ititli.com/JQ \nhttp://ititli.com/JS \nhttp://ititli.com/JZ \nhttp://ititli.com/Jc\r\n\r\n----------------------------------------------------------------------------------------------------\r\n\r\n\r\nEncoder Notes: Looking For Early Access To Anything You Can Provide WEBDL, DVDScr, DVDR, BluRay,\r\nDirect Audio, Music Releases and Seedboxes. If You Got anything to offer please contact us.\r\n\r\nSupport us by donating BC - 1FgwdzPsd1y25Gea8wP1qni35uGCtmkRCD\r\n\r\nSend some love!\r\nFind us and join us!","torrent":{"xt":"urn:btih:d020fe59ee1f3d19c477ccbdbefd213cf1c89e64","amp;dn":"Sleeping.With.Other.People.2015.WEBRip.480p.x264.AAC-VYTO+%5BP2PDL","amp;tr":["udp%3A%2F%2Ftracker.leechers-paradise.org%3A6969","udp%3A%2F%2Fzer0day.ch%3A1337","udp%3A%2F%2Fopen.demonii.com%3A1337","udp%3A%2F%2Ftracker.coppersurfer.tk%3A6969","udp%3A%2F%2Fexodus.desync.com%3A6969"],"infoHash":"d020fe59ee1f3d19c477ccbdbefd213cf1c89e64","infoHashBuffer":{"type":"Buffer","data":[208,32,254,89,238,31,61,25,196,119,204,189,190,253,33,60,241,200,158,100]},"announce":[],"urlList":[]}}